<mxfile host="drawio-plugin" modified="2024-03-14T13:56:03.532Z" agent="5.0 (Windows NT 10.0; Win64; x64) AppleWebKit/537.36 (KHTML, like Gecko) Chrome/111.0.0.0 Safari/537.36" etag="M2-IsQ7lc8YpqKpGzbmk" version="20.5.3" type="embed"><diagram id="23iRSUPoRavnBvh4doch" name="Page-1"><mxGraphModel dx="312" dy="333" grid="1" gridSize="10" guides="1" tooltips="1" connect="1" arrows="1" fold="1" page="1" pageScale="1" pageWidth="827" pageHeight="1169" math="0" shadow="0"><root><mxCell id="0"/><mxCell id="1" parent="0"/><mxCell id="2" value="&lt;p style=&quot;margin:0px;margin-top:4px;text-align:center;&quot;&gt;&lt;i&gt;&amp;lt;&amp;lt;Interface&amp;gt;&amp;gt;&lt;/i&gt;&lt;/p&gt;&lt;p style=&quot;margin:0px;margin-top:4px;text-align:center;&quot;&gt;&lt;i&gt;Symbol&lt;/i&gt;&lt;/p&gt;&lt;hr size=&quot;1&quot;&gt;&lt;p style=&quot;margin:0px;margin-left:4px;&quot;&gt;+ draw()&lt;/p&gt;" style="verticalAlign=top;align=left;overflow=fill;fontSize=12;fontFamily=Helvetica;html=1;" vertex="1" parent="1"><mxGeometry x="80" y="240" width="190" height="70" as="geometry"/></mxCell><mxCell id="3" value="TextSymbol" style="swimlane;fontStyle=1;align=center;verticalAlign=top;childLayout=stackLayout;horizontal=1;startSize=26;horizontalStack=0;resizeParent=1;resizeParentMax=0;resizeLast=0;collapsible=1;marginBottom=0;" vertex="1" parent="1"><mxGeometry x="80" y="400" width="350" height="148" as="geometry"/></mxCell><mxCell id="4" value="- ch: char&#10;- font: String;&#10;- size: int&#10;- color;String" style="text;strokeColor=none;fillColor=none;align=left;verticalAlign=top;spacingLeft=4;spacingRight=4;overflow=hidden;rotatable=0;points=[[0,0.5],[1,0.5]];portConstraint=eastwest;" vertex="1" parent="3"><mxGeometry y="26" width="350" height="64" as="geometry"/></mxCell><mxCell id="5" value="" style="line;strokeWidth=1;fillColor=none;align=left;verticalAlign=middle;spacingTop=-1;spacingLeft=3;spacingRight=3;rotatable=0;labelPosition=right;points=[];portConstraint=eastwest;strokeColor=inherit;" vertex="1" parent="3"><mxGeometry y="90" width="350" height="8" as="geometry"/></mxCell><mxCell id="6" value="+ of(ch: char, font: String, size: int, color: String): TextSymbol&#10;+ draw()" style="text;strokeColor=none;fillColor=none;align=left;verticalAlign=top;spacingLeft=4;spacingRight=4;overflow=hidden;rotatable=0;points=[[0,0.5],[1,0.5]];portConstraint=eastwest;fontStyle=0" vertex="1" parent="3"><mxGeometry y="98" width="350" height="50" as="geometry"/></mxCell><mxCell id="7" value="Use" style="endArrow=open;endSize=12;dashed=1;html=1;rounded=0;exitX=1.001;exitY=0.135;exitDx=0;exitDy=0;entryX=1.004;entryY=0.092;entryDx=0;entryDy=0;entryPerimeter=0;exitPerimeter=0;" edge="1" parent="3" source="4" target="3"><mxGeometry width="160" relative="1" as="geometry"><mxPoint x="180" y="80" as="sourcePoint"/><mxPoint x="400" y="50" as="targetPoint"/><Array as="points"><mxPoint x="380" y="35"/><mxPoint x="380" y="14"/></Array></mxGeometry></mxCell><mxCell id="8" value="" style="endArrow=block;dashed=1;endFill=0;endSize=12;html=1;rounded=0;exitX=0.5;exitY=0;exitDx=0;exitDy=0;entryX=0.5;entryY=1;entryDx=0;entryDy=0;" edge="1" parent="1" source="3" target="2"><mxGeometry width="160" relative="1" as="geometry"><mxPoint x="220" y="450" as="sourcePoint"/><mxPoint x="380" y="450" as="targetPoint"/><Array as="points"><mxPoint x="255" y="360"/><mxPoint x="175" y="360"/></Array></mxGeometry></mxCell><mxCell id="9" value="SymbolPool" style="swimlane;fontStyle=1;align=center;verticalAlign=top;childLayout=stackLayout;horizontal=1;startSize=26;horizontalStack=0;resizeParent=1;resizeParentMax=0;resizeLast=0;collapsible=1;marginBottom=0;" vertex="1" parent="1"><mxGeometry x="520" y="280" width="200" height="86" as="geometry"/></mxCell><mxCell id="10" value="- cache: Map&lt;Symbol, Symbol&gt;" style="text;strokeColor=none;fillColor=none;align=left;verticalAlign=top;spacingLeft=4;spacingRight=4;overflow=hidden;rotatable=0;points=[[0,0.5],[1,0.5]];portConstraint=eastwest;" vertex="1" parent="9"><mxGeometry y="26" width="200" height="26" as="geometry"/></mxCell><mxCell id="11" value="" style="line;strokeWidth=1;fillColor=none;align=left;verticalAlign=middle;spacingTop=-1;spacingLeft=3;spacingRight=3;rotatable=0;labelPosition=right;points=[];portConstraint=eastwest;strokeColor=inherit;" vertex="1" parent="9"><mxGeometry y="52" width="200" height="8" as="geometry"/></mxCell><mxCell id="12" value="+ method(type): type" style="text;strokeColor=none;fillColor=none;align=left;verticalAlign=top;spacingLeft=4;spacingRight=4;overflow=hidden;rotatable=0;points=[[0,0.5],[1,0.5]];portConstraint=eastwest;" vertex="1" parent="9"><mxGeometry y="60" width="200" height="26" as="geometry"/></mxCell><mxCell id="13" value="Use" style="endArrow=open;endSize=12;dashed=1;html=1;rounded=0;exitX=0;exitY=0.5;exitDx=0;exitDy=0;entryX=1;entryY=0.5;entryDx=0;entryDy=0;" edge="1" parent="1" source="10" target="2"><mxGeometry width="160" relative="1" as="geometry"><mxPoint x="420" y="470" as="sourcePoint"/><mxPoint x="580" y="470" as="targetPoint"/><Array as="points"><mxPoint x="440" y="320"/><mxPoint x="440" y="275"/></Array></mxGeometry></mxCell><mxCell id="14" value="Use" style="endArrow=open;endSize=12;dashed=1;html=1;rounded=0;exitX=0.02;exitY=1.038;exitDx=0;exitDy=0;exitPerimeter=0;entryX=0.75;entryY=0;entryDx=0;entryDy=0;" edge="1" parent="1" source="10" target="3"><mxGeometry width="160" relative="1" as="geometry"><mxPoint x="310" y="370" as="sourcePoint"/><mxPoint x="470" y="370" as="targetPoint"/><Array as="points"><mxPoint x="343" y="333"/></Array></mxGeometry></mxCell><mxCell id="15" value="Actor" style="shape=umlActor;verticalLabelPosition=bottom;verticalAlign=top;html=1;outlineConnect=0;" vertex="1" parent="1"><mxGeometry x="600" y="100" width="40" height="60" as="geometry"/></mxCell><mxCell id="18" value="Use" style="endArrow=open;endSize=12;dashed=1;html=1;rounded=0;exitX=0;exitY=0.3333333333333333;exitDx=0;exitDy=0;exitPerimeter=0;entryX=0.207;entryY=-0.007;entryDx=0;entryDy=0;entryPerimeter=0;" edge="1" parent="1" source="15" target="9"><mxGeometry width="160" relative="1" as="geometry"><mxPoint x="410" y="270" as="sourcePoint"/><mxPoint x="570" y="270" as="targetPoint"/><Array as="points"><mxPoint x="560" y="120"/></Array></mxGeometry></mxCell></root></mxGraphModel></diagram></mxfile>